<svg xmlns="http://www.w3.org/2000/svg" width="257" height="95"><title>background</title><rect fill="none" height="97" width="259" y="-1" x="-1"/><title>Layer 1</title><path d="m37.7 78.2c-1 0-7.8-3.6-10.6-7.9 -0.4 0.4-0.6 1.7-0.9 2.7 -0.5 0.3-2.4 1.1-2.9 1.6 -0.1 1-1.8 2.3-3.4 2.3 -12.8 0-17.9-7.3-17.9-19.4 0-12.1 18-14.9 20.1-14.9 0.6 0 1.6 0.5 1.8 0.9 0.7 0 1.4 0.1 1.7 0.2 0.3 0.1 0.5 0.3 0.7 0.4 0.5 0.3 0.8 0.5 1 0.8 0.1-0.8 0.1-1.6 0.1-2.2 0-7.3-6.8-11.8-16.7-11.8 -1.5-0.7-2.5-1.5-2.5-3.9 0-3.9 2.4-5.6 3.9-5.6 -0.6-0.2-1.3-0.3-2.1-0.3 1.1-0.4 4.1-0.8 5.1-0.8 -0.5-0.5-1.5-0.8-2.8-0.8 0.6-0.3 1.1-1 4.8-1 9.4 0 24.5 7.9 24.5 20.7 0 7.1-1.4 22.5-1.4 24.6s3.3 7 4.6 8c0.9 0.7 1.2 1.8 1.2 2.2 0 0.1-0.5 0.2-1.8 0.2 0.3 0.3 0.8 0.4 0.8 0.8 -0.6 0-2.4 0.2-2.6 0.3 0.3 0.3 0.6 0.7 0.7 0.9 -0.4-0.1-1-0.4-1.4-0.4 0.3 0.2 1.5 0.9 1.9 1.2 -0.3 0-3-1.5-3.7-1.7 0.8 0.6 2.1 1.3 2.3 1.6 -0.3 0-0.9 0-1.1 0.1 -0.7 1-3 1.2-3.4 1.2zm-20.6-12c2.3-1.2 6.6-2.3 8.9-2.7 0.2-3.7 0.4-7.5 0.7-11 -4.7 0.7-8.6 1.3-12 4.2 2.9-2.6 7.8-4.2 12.1-4.7l0-0.4c-8.1 0.6-13.1 5.2-13.1 6.7 0 4 2.1 6.6 3.4 7.9zm0.6-12.5c3.5-2 9.2-2.6 9.2-2.6l0.1-0.6c0 0-5.7 0.6-9.3 3.2zm22.9-20.8c-4.2-10.3-13.7-13.8-19.7-14.6 5.7 1.1 15.1 4.6 19.7 14.6zM53.2 71.8 53.2 71.8c-0.3-3.3-0.4-37.6-0.4-43.9 0-3.7 1.1-4.4 1.8-4.6 0.2-0.1 0.4-0.1 0.6-0.1 0.8 0 1.3 0.6 2.2 0.6 0.4 0 0.7 0.6 0.9 1 0.4-0.3 0.8-2 1.3-2.4 0.8 0.2 1.6 1.5 2.1 1.7 0.2-0.4 0.2-0.7 0.4-1.1 0.5 0.7 0.7 5.4 0.9 5l0-0.5c0-1.1-0.1-3.7-0.1-4.8l0-0.5c0.1 0.9 0.2 2.1 0.5 2.4 0-0.3 0.3-0.7 0.3-1.5l0-0.3c0.5 2.7 0.3 3.4 0.9 4.2 0.1-0.5 0.2-3.2 0.2-3.7 0.7 0.5 1.5 1.8 2 1.8 1.2 0 1.8 1.4 1.9 1.8 0.1 0.8 0.3 3.4 0.3 3.4 1-0.8 4.9-3.8 8.8-4.3 -3.6 0.9-7.5 4.1-8.7 5.4l0 0.7c3.5-3.6 7.9-6.4 12.8-6.4 6.3 0 10.4 4.4 12.5 8.9 2.5-3.1 8.4-7 11.4-7.6 -2.9 1.1-8.7 4.5-11.3 7.9l0.1 0.3c3.4-3.5 10.3-8.8 15.4-8.8 10.6 0 14.1 5.9 14.1 18 0 7.8-2 17.4-3.5 21.6 -1 2.9-1.2 3.9-2.4 3.9 -0.1 0-0.6 0.2-1.4 0.2l-0.4 0c-0.2 0-0.3-0.5-0.5-0.6 0 0.2-0.1 1.6-0.3 1.8 -0.1-0.4-0.1-0.8-0.2-1.1l-0.5 0.6 0-0.8c0-0.2 0-0.3-0.1-0.5 -0.2 0.3-0.5 0.5-0.9 1.9l0-0.5c0-0.4 0-0.6-0.1-0.9 -0.3 0.4-0.5 1-0.7 1.8 0.1-1.4 0.9-6.6 0.9-7.7l0-0.1c-0.2 1-1.5 8.3-1.7 9.2l0-0.7c0-0.8-0.1-1.2-0.1-1.9 -0.4 0.6-0.8 1-0.8 1 0-1.9-0.1-3-0.3-3.5 -0.5 0.7-0.8 1.3-1.2 2.1 -0.3-0.8-0.5-1.1-0.6-1.4 -0.4 0-1.3-0.5-1.4-1.1 -0.4 0-1.1-0.1-1.1-0.1 -0.6-0.2-1.5-0.9-1.5-1.4 0-4.1 3.2-14.8 3.2-21.4 0-5.9-2.8-6.2-5-6.2l-0.8 0c-1.9 0-4.9 2.5-6.7 6.7l0 16.3c0 3.1-1.4 4.2-2.2 5.9 -0.9-1.7-2.9-1.9-3.6-2.5 -1.6 1.3-1.9 2-3.5 2 -0.3 0-1.3-0.1-1.6-0.6 0 0.4-2.2 1.3-2.2 4.6 -1.1-2.9-1.9-6-2.1-9.6 -0.2-4.1-0.4-12.5-0.4-17.3 0-2.6-3.2-6.6-6.1-7.5 -1.1 1-4.9 2-4.9 2 0.7 16.1 0.9 26.1 0.9 30.1 0 0.9-0.6 2.6-2.2 2.6 -0.4 0.6-0.2 2.1-2.4 2.1 -2.3 0-4.2-1.2-5.3-1.2 -1 0-1.6-0.5-2.1-0.5 -0.4 0.8-1.8 1.9-2.8 1.9 -1.4 0-2.2-0.7-2.3-1.8zm53.6-44.6c-4.2 1.4-9.4 5.6-12.1 8.3l0.1 0.3c0.6-0.7 7-6.5 12-8.6zM130.7 12.3c0-8.3 2.9-10.4 10.1-10.4 2.2 0 3.3 1.9 5.1 3.4 1.7 1.4 3.4 1.4 3.4 4.4 0 4.5-4.6 8.2-9.8 8.2s-8.8-1.4-8.8-5.6zm1.1 20.7c0.2 1.5 1.4 31.1 1.4 36.8 -0.4-6.4-1.4-30.2-1.4-36.8zm2 43.1c-0.3-3.3-1.3-36.8-1.3-45.2 0-3.7 1-4.6 1.8-4.6 1.4 0 2.2-1.6 3.4-1.9 3.3 0 4.7 3.6 5.8 4.3 0.7-0.3 1.7-0.7 2.8-0.7 1.2 0 1.8 1.4 1.9 1.8 0.3 1.9 0.9 22.1 0.9 41.9 0 0.9-0.9 1.6-1.7 1.6 -0.4 0.6-0.3 1.7-0.6 2.5 -0.4-1.1-0.9-3.3-1.8-3.8 -0.1 0.1-0.1 3.3-0.3 4 -0.3-0.3-0.1-1.7-0.4-1.9 -0.2 0.1-0.2 0.5-0.3 0.9 -0.4-0.5-0.7-1.6-1-1.9 -0.2 0.3-0.8 1.3-1.3 1.9 -1.3-0.3-2.8-0.6-3-0.6 -0.4 0.8-1.6 3.5-2.6 3.5 -1.4 0-2.2-0.7-2.3-1.8zM164 88.2c0.3 0 1.3-0.1 2.1-0.4 -1.7 0-2.6-0.4-3.3-0.7 0.4 0 1-0.1 1.4-0.3 -0.5-0.1-1.8-0.6-2.8-1.3 1 0.4 3.5 1.1 6.5 1.1 -3.2-0.5-6.1-1.5-7-2.3 1.4 0.7 3.5 1.1 4.8 1.1 -2.6-1-3.8-2.5-4.9-3.9 1.2 0 1.7-1.3 3.6-1.3 3.1 0 2.4 1.2 8.2 1.2 14.3 0 15.6-4 15.6-7.7 0-0.8-0.1-1.6-0.1-2.3 0-1.9-0.5-3.5-0.5-3.5s-0.3-0.1-0.4-0.1c0 0.5-2.9 4.7-6 4.7 -14.2 0-25.2-10.4-25.2-25.6 0-11.7 9.9-24.7 20.6-24.7 0.9 0 3.8 0.2 4.3 0.8 -0.2 0.4-0.5 1.3-1.1 1.8 0.7 0 2.1 0.2 2.4 0.6 -0.4 0.2-0.4 0.8-0.4 1.2 0.3 0.4 1.7 0.8 1.9 1.1l0-0.2c0-1.5-0.6-10.1-0.6-12.4 1.8 0.7 3.1 1.3 3.9 1.3 2.2 0 4-0.7 5-0.7 1.9 0 3.5 2.4 3.6 3.9 0.8 0 2.1 1.7 2.7 5.2 2.2 12.5 4.2 35.9 4.2 45.6 0 14.2-11 23.2-28 23.2 -10.4 0-10.2-4.6-10.5-5.4zm20-56.6c-4.6 2.1-11 7.8-12.8 15.9 0 6.4 8.5 10.2 15.5 13.1 -1-10.3-2-21.2-2.7-29zm-1.2 1.1c-2.7 1.1-10.3 8.7-11.2 14.2 1.2-5.2 8.7-12.8 11.2-14.2zM230.4 75.9c-0.8 0.7-2.5 1.3-3.1 1.3 -1.9 0-2.1-0.4-3-0.7 2.3-1 2.6-2.6 2.8-3.5 -0.9 0.5-2.8 0.7-4.3 0.7 -0.7 0-1.3 0-1.6-0.1 2.4 0 3.3-0.6 3.8-1 -1.2 0-3.2-0.4-3.6-0.7 2.6 0 3.4-0.3 3.7-0.7 -5.2 0-16.5-3.7-16.5-18.8 0-12.7 15.5-21.8 17.5-22.2 -0.8-0.6-1.5-1.5-2.8-3.4 0.8-0.7 2-1.3 2.6-1.6 -0.8-0.5-1.4-1.3-1.4-2.3 18.5 0 30.3 15.5 30.3 29.1 0 17.5-13.5 26.4-22.6 26.4 -1.7 0-1.8-1.6-1.8-2.5zm10.3-24.8c0-10.1-5.7-15.8-8.2-17.5l0 0.7c2.2 1.6 6.2 6.9 7.7 12.5 -1.8-5.4-5.8-10.2-7.8-11.7 -1.1 6.2-8.7 11.2-11.3 16.8 0.1 6.5 1.3 14.9 5.7 15.6 5.2-3 13.9-7.2 13.9-16.4z" fill="#9BC6DD"/></svg>